<svg width="512" height="512" viewBox="0 0 512 512" fill="none" xmlns="http://www.w3.org/2000/svg">
  <rect width="512" height="512" rx="100" fill="#4A6BFF"/>
  <path d="M256 120C203.05 120 160 163.05 160 216C160 268.95 203.05 312 256 312C308.95 312 352 268.95 352 216C352 163.05 308.95 120 256 120ZM256 280C220.7 280 192 251.3 192 216C192 180.7 220.7 152 256 152C291.3 152 320 180.7 320 216C320 251.3 291.3 280 256 280Z" fill="white"/>
  <path d="M139.37 372.63C143.66 368.34 143.66 361.4 139.37 357.11C135.08 352.82 128.14 352.82 123.85 357.11C104.3 376.66 94 403.75 94 432.5C94 461.25 104.3 488.34 123.85 507.89C128.14 512.18 135.08 512.18 139.37 507.89C143.66 503.6 143.66 496.66 139.37 492.37C124.32 477.32 116 455.67 116 432.5C116 409.33 124.32 387.68 139.37 372.63Z" fill="white"/>
  <path d="M198.37 313.63C202.66 309.34 202.66 302.4 198.37 298.11C194.08 293.82 187.14 293.82 182.85 298.11C150.63 330.33 134 374.66 134 432.5C134 490.34 150.63 534.67 182.85 566.89C187.14 571.18 194.08 571.18 198.37 566.89C202.66 562.6 202.66 555.66 198.37 551.37C170.63 523.63 156 485.33 156 432.5C156 379.67 170.63 341.37 198.37 313.63Z" fill="white"/>
  <path d="M80.37 431.63C84.66 427.34 84.66 420.4 80.37 416.11C76.08 411.82 69.14 411.82 64.85 416.11C37.93 443.03 24 479.62 24 518.5C24 557.38 37.93 593.97 64.85 620.89C69.14 625.18 76.08 625.18 80.37 620.89C84.66 616.6 84.66 609.66 80.37 605.37C57.97 582.97 46 551.63 46 518.5C46 485.37 57.97 454.03 80.37 431.63Z" fill="white"/>
  <path d="M372.63 372.63C387.68 387.68 396 409.33 396 432.5C396 455.67 387.68 477.32 372.63 492.37C368.34 496.66 368.34 503.6 372.63 507.89C376.92 512.18 383.86 512.18 388.15 507.89C407.7 488.34 418 461.25 418 432.5C418 403.75 407.7 376.66 388.15 357.11C383.86 352.82 376.92 352.82 372.63 357.11C368.34 361.4 368.34 368.34 372.63 372.63Z" fill="white"/>
  <path d="M313.63 313.63C341.37 341.37 356 379.67 356 432.5C356 485.33 341.37 523.63 313.63 551.37C309.34 555.66 309.34 562.6 313.63 566.89C317.92 571.18 324.86 571.18 329.15 566.89C361.37 534.67 378 490.34 378 432.5C378 374.66 361.37 330.33 329.15 298.11C324.86 293.82 317.92 293.82 313.63 298.11C309.34 302.4 309.34 309.34 313.63 313.63Z" fill="white"/>
  <path d="M431.63 431.63C454.03 454.03 466 485.37 466 518.5C466 551.63 454.03 582.97 431.63 605.37C427.34 609.66 427.34 616.6 431.63 620.89C435.92 625.18 442.86 625.18 447.15 620.89C474.07 593.97 488 557.38 488 518.5C488 479.62 474.07 443.03 447.15 416.11C442.86 411.82 435.92 411.82 431.63 416.11C427.34 420.4 427.34 427.34 431.63 431.63Z" fill="white"/>
</svg> 